# xmcd
#
# Track frame offsets:
#	150
#	18365
#	42764
#	65790
#	88747
#	109178
#	129853
#	149418
#	175061
#	193686
#	211751
#	231353
#	251364
#	272730
#	293176
#	316703
#	338464
#
# Disc length: 4753 seconds
#
# Revision: 1
# Processed by: cddbd v1.5.2PL0 Copyright (c) Steve Scherf et al.
# Submitted via: audiograbber 1.83.01
#
DISCID=ef128f11
DTITLE=Various Artist - X-Mix Chartbusters 59 (July 2010)
DYEAR=2010
DGENRE=
TTITLE0=diego torres - guapa (140 BPM)
TTITLE1=avenged sevenfold - nightmare (130 BPM)
TTITLE2=enrique iglesias ft pitbull - I like it (129 BPM)
TTITLE3=ne - yo - beautiful monster (128 BPM)
TTITLE4=flo rida ft david guetta  - club cant handle me(128 BPM)
TTITLE5=white tie affair - you look better when im drunk (128 BPM)
TTITLE6=miranda cosgrove - kissin u (dance mix) (125 BPM)
TTITLE7=taio cruz - dynamite(120 BPM)
TTITLE8=sara barielles - king of anything (119 BPM)
TTITLE9=blake shelton - all about tonight (118 BPM)
TTITLE10=brad paisley - water  (98 BPM)
TTITLE11=drake - find your love  (96 BPM)
TTITLE12=nicki minaj ft flo rida - your love  (95 BPM)
TTITLE13=shakira - gitana  (93 BPM)
TTITLE14=one eskimo - kandi (90 BPM)
TTITLE15=jason derulo - ridin solo  (90 BPM)
TTITLE16=we the kings - well be a dream  (80 BPM)
EXTD=
EXTT0=
EXTT1=
EXTT2=
EXTT3=
EXTT4=
EXTT5=
EXTT6=
EXTT7=
EXTT8=
EXTT9=
EXTT10=
EXTT11=
EXTT12=
EXTT13=
EXTT14=
EXTT15=
EXTT16=
PLAYORDER=
